<?xml version="1.0" encoding="UTF-8" standalone="no"?>
<svg
   version="1.1"
   width="100%"
   height="100%"
   viewBox="0 0 1000 600"
   id="svg1619"
   sodipodi:docname="logo.svg"
   inkscape:version="1.2.2 (b0a8486541, 2022-12-01)"
   xmlns:inkscape="http://www.inkscape.org/namespaces/inkscape"
   xmlns:sodipodi="http://sodipodi.sourceforge.net/DTD/sodipodi-0.dtd"
   xmlns="http://www.w3.org/2000/svg"
   xmlns:svg="http://www.w3.org/2000/svg">
  <defs
     id="defs1623" />
  <sodipodi:namedview
     id="namedview1621"
     pagecolor="#ffffff"
     bordercolor="#000000"
     borderopacity="0.25"
     inkscape:showpageshadow="2"
     inkscape:pageopacity="0.0"
     inkscape:pagecheckerboard="0"
     inkscape:deskcolor="#d1d1d1"
     showgrid="false"
     inkscape:zoom="0.39333333"
     inkscape:cx="444.91525"
     inkscape:cy="301.27119"
     inkscape:window-width="1600"
     inkscape:window-height="830"
     inkscape:window-x="0"
     inkscape:window-y="0"
     inkscape:window-maximized="1"
     inkscape:current-layer="svg1619" />
  <g
     id="g2594"
     transform="translate(-2.5e-5)"
     style="fill:#00ffff">
    <path
       id="circle1611"
       style="fill:#00ffff;fill-opacity:1;stroke-width:1.07265"
       d="M 303.77539,121.22461 A 178.77571,178.77571 0 0 0 125,300 178.77571,178.77571 0 0 0 303.77539,478.77539 178.77571,178.77571 0 0 0 482.55078,300 178.77571,178.77571 0 0 0 303.77539,121.22461 Z m 14.48828,98.32617 h 17.04688 v 159.4043 h -17.04688 z m -23.02539,38.35742 c 2.73053,0 5.12897,0.2855 7.19531,0.85742 2.0479,0.55349 3.87342,1.39216 5.47852,2.51758 v 10.57227 c -2.06635,-0.86713 -4.36305,-1.30078 -6.89063,-1.30078 -3.98508,0 -6.83497,0.89399 -8.55078,2.68359 -1.73426,1.80805 -2.66578,4.733 -2.79492,8.77344 -0.27674,8.17312 -0.46048,16.64079 -0.55273,25.4043 -0.0922,8.7635 -0.11196,17.28844 -0.0566,25.57226 0.0738,8.26537 0.23975,15.78373 0.49804,22.55469 0.12916,4.52013 1.1071,7.67524 2.9336,9.46484 1.82649,1.7896 4.64081,2.6836 8.4414,2.6836 2.71208,0 5.03547,-0.39613 6.97266,-1.18946 v 10.34961 c -1.73425,1.14387 -3.64373,2.02897 -5.72852,2.65625 -2.10323,0.62728 -4.54616,0.94141 -7.33203,0.94141 -7.3798,0 -12.82272,-2.01122 -16.32812,-6.0332 -3.52385,-4.022 -5.48864,-10.58019 -5.89453,-19.67579 -0.12915,-5.31344 -0.2309,-11.0616 -0.30469,-17.24218 -0.0553,-6.16213 -0.084,-12.4151 -0.084,-18.76172 0,-6.34662 0.0287,-12.54622 0.084,-18.59766 0.0738,-6.03298 0.17554,-11.54012 0.30469,-16.52148 0.33209,-9.37235 2.4253,-15.99671 6.28125,-19.8711 3.85593,-3.89283 9.29887,-5.83789 16.32812,-5.83789 z" />
    <path
       d="m 572.32669,354.73971 v 0 q -0.19372,-7.97018 -0.30441,-17.24107 -0.083,-9.2432 -0.083,-18.76314 0,-9.51994 0.083,-18.5971 0.11069,-9.04948 0.30441,-16.52153 v 0 q 0.49814,-14.05853 6.28206,-19.87012 5.78392,-5.83926 16.32781,-5.83926 v 0 q 4.09579,0 7.19531,0.85789 3.07184,0.83023 5.47951,2.51836 v 0 10.57156 q -3.09952,-1.30069 -6.8909,-1.30069 v 0 q -5.97764,0 -8.55135,2.68441 -2.60138,2.71207 -2.7951,8.77274 v 0 q -0.4151,12.2597 -0.55348,25.40497 -0.13837,13.14527 -0.0553,25.57101 0.11069,12.39807 0.49813,22.55452 v 0 q 0.19372,6.7802 2.93347,9.4646 2.73975,2.6844 8.44065,2.6844 v 0 q 4.06812,0 6.97392,-1.18999 v 0 10.35017 q -2.60138,1.71581 -5.72858,2.65673 -3.15487,0.94092 -7.33368,0.94092 v 0 q -11.0697,0 -16.3278,-6.03298 -5.28579,-6.033 -5.89463,-19.6764 z m 62.68219,24.21498 H 617.96154 V 219.55096 h 17.04734 z m 38.74396,0 H 656.9269 V 259.4019 h 16.82594 z m 45.93927,0 h -16.65989 l -0.083,-96.63851 q -0.1107,-6.28206 -2.85045,-9.02181 -2.73975,-2.73976 -8.71739,-2.73976 v 0 q -1.99255,0 -3.73603,0.41512 -1.74348,0.38744 -3.3209,0.99627 v 0 -9.96272 q 2.5737,-2.10325 5.81158,-3.09952 3.2379,-0.99627 7.41671,-0.99627 v 0 q 11.18039,0 16.60455,6.08833 5.42415,6.06066 5.53485,19.62105 v 0 z m 18.01595,-25.10056 v 0 q -0.083,-4.48322 -0.0554,-8.71739 0.0554,-4.23416 0.24907,-8.32995 v 0 h 15.16548 q -0.22138,6.17136 -0.16604,10.76529 0.0554,4.59393 0.0554,7.97018 v 0 q 0.11069,5.28578 1.88185,7.91484 1.79883,2.65673 5.78392,3.43161 v 0 13.36667 q -12.25969,-0.91326 -17.32408,-7.16764 -5.09207,-6.28205 -5.5902,-19.23361 z m 33.56887,26.40125 v 0 -13.14528 q 4.59392,-0.80255 6.64182,-3.48695 2.04789,-2.71208 2.24161,-8.19159 v 0 q 0.083,-2.87812 0.083,-4.81531 0,-1.93721 0,-3.79137 0,-1.85418 -0.083,-4.23417 v 0 q -0.19372,-6.78019 -1.99254,-10.07343 -1.79883,-3.26556 -7.16763,-4.98137 v 0 l -11.26343,-3.18254 q -7.97019,-2.29696 -12.75783,-5.78391 -4.78765,-3.48696 -7.02926,-9.04949 -2.24161,-5.5902 -2.43533,-14.36294 v 0 q -0.1107,-3.37625 -0.1107,-5.61787 0,-2.24161 0.1107,-4.84299 v 0 q 0.19372,-13.03459 5.61787,-19.37199 5.45183,-6.30973 18.4864,-7.22297 v 0 13.25596 q -3.98509,0.80255 -5.61787,3.37626 -1.66046,2.60138 -1.85417,7.77646 v 0 q -0.083,1.79883 -0.19372,4.64928 -0.1107,2.82278 0,6.42043 v 0 q 0.1107,6.86322 1.68812,11.01435 1.60511,4.12347 7.77647,5.9223 v 0 l 10.46087,2.79509 q 11.34644,2.87812 16.79827,9.3539 5.42416,6.47578 5.42416,19.31663 v 0 q 0,3.40394 -0.0553,6.08835 -0.0553,2.6844 -0.24906,6.17135 v 0 q -0.30442,12.75783 -5.78393,18.92919 -5.4795,6.17136 -18.73547,7.08462 z m 23.63381,-79.1207 h -15.55292 q 0.19372,-3.07185 0.19372,-6.61416 0,-3.5423 0,-6.72485 0,-3.18253 -0.083,-5.3688 v 0 q -0.11069,-5.09206 -1.7158,-7.69344 -1.57744,-2.57371 -5.47951,-3.26556 v 0 -13.36666 q 12.06598,0.91324 17.29641,7.13995 5.23044,6.22671 5.72858,19.17826 v 0 q 0,1.49441 0,4.62161 0,3.12718 -0.0553,6.47577 -0.0553,3.34858 -0.3321,5.61788 z m 17.43479,53.60503 v 0 q -0.2214,-7.97018 -0.30442,-17.24107 -0.11069,-9.2432 -0.11069,-18.76314 0,-9.51994 0.11069,-18.5971 0.083,-9.04948 0.30442,-16.52153 v 0 q 0.49814,-14.05853 6.25438,-19.87012 5.78392,-5.83926 16.35548,-5.83926 v 0 q 4.06812,0 7.16764,0.85789 3.09952,0.83023 5.4795,2.51836 v 0 10.57156 q -3.09952,-1.30069 -6.86322,-1.30069 v 0 q -5.97763,0 -8.57902,2.68441 -2.60138,2.71207 -2.79509,8.77274 v 0 q -0.38744,12.2597 -0.55349,25.40497 -0.13837,13.14527 -0.0277,25.57101 0.083,12.39807 0.49814,22.55452 v 0 q 0.19371,6.7802 2.93346,9.4646 2.73975,2.6844 8.41298,2.6844 v 0 q 4.09579,0 6.97391,-1.18999 v 0 10.35017 q -2.60138,1.71581 -5.72857,2.65673 -3.12719,0.94092 -7.33367,0.94092 v 0 q -11.04204,0 -16.32782,-6.03298 -5.28578,-6.033 -5.86694,-19.6764 z m 62.65452,24.21498 H 857.9527 V 219.55096 h 17.04735 z"
       fill="#c5fad5"
       id="path1615"
       style="stroke-width:1.07265;fill:#00ffff" />
  </g>
</svg>
